<svg xmlns="http://www.w3.org/2000/svg" version="1.1" xmlns:xlink="http://www.w3.org/1999/xlink" xmlns:svgjs="http://svgjs.com/svgjs" width="3840" height="2160" preserveAspectRatio="none" viewBox="0 0 3840 2160"><g mask="url(&quot;#SvgjsMask1019&quot;)" fill="none"><rect width="3840" height="2160" x="0" y="0" fill="#0e2a47"></rect><path d="M1920 2078.6C2186.11 2080.05 2435.31 1971.15 2632.73 1792.73 2841.89 1603.71 3016.02 1361.78 3024.93 1080 3034.08 791.05 2897.15 510.75 2679.31 320.69 2473.96 141.55 2192.38 124.5 1920 116.07 1635.03 107.27 1323.45 80.74 1112.23 272.23 894.73 469.41 836.83 787.11 856.74 1080 875.31 1353.39 1015.27 1597.4 1215.01 1784.99 1407.91 1966.16 1655.36 2077.15 1920 2078.6" fill="rgba(5, 117, 230, 1)"></path><path d="M1920 1533.91C2040.96 1534.57 2154.23 1485.07 2243.97 1403.97 2339.04 1318.05 2418.19 1208.08 2422.24 1080 2426.4 948.66 2364.16 821.25 2265.14 734.86 2171.8 653.43 2043.81 645.68 1920 641.85 1790.47 637.85 1648.84 625.79 1552.83 712.83 1453.97 802.46 1427.65 946.87 1436.7 1080 1445.14 1204.27 1508.76 1315.18 1599.55 1400.45 1687.23 1482.8 1799.71 1533.25 1920 1533.91" fill="rgba(0, 207, 48, 1)"></path></g><defs><mask id="SvgjsMask1019"><rect width="3840" height="2160" fill="#ffffff"></rect></mask></defs></svg>