<svg xmlns="http://www.w3.org/2000/svg" version="1.1" xmlns:xlink="http://www.w3.org/1999/xlink" xmlns:svgjs="http://svgjs.com/svgjs" width="3840" height="2160" preserveAspectRatio="none" viewBox="0 0 3840 2160"><g mask="url(&quot;#SvgjsMask1053&quot;)" fill="none"><rect width="3840" height="2160" x="0" y="0" fill="rgba(22, 31, 48, 1)"></rect><path d="M3763 1906L2144 3525" stroke-width="10" stroke="url(#SvgjsLinearGradient1054)" stroke-linecap="round" class="BottomLeft"></path><path d="M2295 1687L3479 503" stroke-width="8" stroke="url(#SvgjsLinearGradient1055)" stroke-linecap="round" class="TopRight"></path><path d="M673 2124L-662 3459" stroke-width="10" stroke="url(#SvgjsLinearGradient1055)" stroke-linecap="round" class="TopRight"></path><path d="M3175 729L3754 150" stroke-width="10" stroke="url(#SvgjsLinearGradient1056)" stroke-linecap="round" class="BottomLeft"></path><path d="M868 1859L2257 470" stroke-width="8" stroke="url(#SvgjsLinearGradient1057)" stroke-linecap="round" class="TopRight"></path><path d="M502 823L1686 -361" stroke-width="6" stroke="url(#SvgjsLinearGradient1055)" stroke-linecap="round" class="TopRight"></path><path d="M3552 87L4480 -841" stroke-width="10" stroke="url(#SvgjsLinearGradient1055)" stroke-linecap="round" class="TopRight"></path><path d="M2185 337L1454 1068" stroke-width="8" stroke="url(#SvgjsLinearGradient1057)" stroke-linecap="round" class="TopRight"></path><path d="M1671 862L2725 -192" stroke-width="6" stroke="url(#SvgjsLinearGradient1054)" stroke-linecap="round" class="BottomLeft"></path><path d="M944 437L147 1234" stroke-width="6" stroke="url(#SvgjsLinearGradient1056)" stroke-linecap="round" class="BottomLeft"></path><path d="M2915 1139L4154 -100" stroke-width="6" stroke="url(#SvgjsLinearGradient1055)" stroke-linecap="round" class="TopRight"></path><path d="M3575 424L4306 -307" stroke-width="10" stroke="url(#SvgjsLinearGradient1055)" stroke-linecap="round" class="TopRight"></path><path d="M1404 1709L2589 524" stroke-width="10" stroke="url(#SvgjsLinearGradient1055)" stroke-linecap="round" class="TopRight"></path><path d="M621 1129L-483 2233" stroke-width="6" stroke="url(#SvgjsLinearGradient1057)" stroke-linecap="round" class="TopRight"></path><path d="M647 1264L-866 2777" stroke-width="10" stroke="url(#SvgjsLinearGradient1054)" stroke-linecap="round" class="BottomLeft"></path><path d="M1834 783L812 1805" stroke-width="8" stroke="url(#SvgjsLinearGradient1054)" stroke-linecap="round" class="BottomLeft"></path><path d="M532 190L-1054 1776" stroke-width="8" stroke="url(#SvgjsLinearGradient1054)" stroke-linecap="round" class="BottomLeft"></path><path d="M565 260L-305 1130" stroke-width="6" stroke="url(#SvgjsLinearGradient1057)" stroke-linecap="round" class="TopRight"></path><path d="M2062 344L975 1431" stroke-width="10" stroke="url(#SvgjsLinearGradient1055)" stroke-linecap="round" class="TopRight"></path><path d="M2505 1006L1336 2175" stroke-width="10" stroke="url(#SvgjsLinearGradient1057)" stroke-linecap="round" class="TopRight"></path><path d="M1150 411L2101 -540" stroke-width="8" stroke="url(#SvgjsLinearGradient1057)" stroke-linecap="round" class="TopRight"></path><path d="M1558 843L2787 -386" stroke-width="6" stroke="url(#SvgjsLinearGradient1056)" stroke-linecap="round" class="BottomLeft"></path><path d="M752 493L2268 -1023" stroke-width="8" stroke="url(#SvgjsLinearGradient1055)" stroke-linecap="round" class="TopRight"></path><path d="M651 2068L-672 3391" stroke-width="6" stroke="url(#SvgjsLinearGradient1054)" stroke-linecap="round" class="BottomLeft"></path><path d="M1431 458L2961 -1072" stroke-width="10" stroke="url(#SvgjsLinearGradient1055)" stroke-linecap="round" class="TopRight"></path><path d="M2660 1480L3791 349" stroke-width="10" stroke="url(#SvgjsLinearGradient1057)" stroke-linecap="round" class="TopRight"></path><path d="M292 1L1275 -982" stroke-width="6" stroke="url(#SvgjsLinearGradient1055)" stroke-linecap="round" class="TopRight"></path><path d="M545 1146L-252 1943" stroke-width="8" stroke="url(#SvgjsLinearGradient1057)" stroke-linecap="round" class="TopRight"></path><path d="M2031 654L3400 -715" stroke-width="8" stroke="url(#SvgjsLinearGradient1054)" stroke-linecap="round" class="BottomLeft"></path><path d="M2079 529L3470 -862" stroke-width="6" stroke="url(#SvgjsLinearGradient1055)" stroke-linecap="round" class="TopRight"></path><path d="M3407 900L4933 -626" stroke-width="6" stroke="url(#SvgjsLinearGradient1055)" stroke-linecap="round" class="TopRight"></path><path d="M667 296L-803 1766" stroke-width="10" stroke="url(#SvgjsLinearGradient1056)" stroke-linecap="round" class="BottomLeft"></path><path d="M3172 1584L2293 2463" stroke-width="10" stroke="url(#SvgjsLinearGradient1055)" stroke-linecap="round" class="TopRight"></path><path d="M3472 1109L4617 -36" stroke-width="10" stroke="url(#SvgjsLinearGradient1056)" stroke-linecap="round" class="BottomLeft"></path><path d="M451 209L1774 -1114" stroke-width="6" stroke="url(#SvgjsLinearGradient1057)" stroke-linecap="round" class="TopRight"></path><path d="M2032 1019L3210 -159" stroke-width="10" stroke="url(#SvgjsLinearGradient1057)" stroke-linecap="round" class="TopRight"></path><path d="M1857 316L2761 -588" stroke-width="10" stroke="url(#SvgjsLinearGradient1056)" stroke-linecap="round" class="BottomLeft"></path><path d="M770 1462L23 2209" stroke-width="6" stroke="url(#SvgjsLinearGradient1057)" stroke-linecap="round" class="TopRight"></path><path d="M1354 1510L-151 3015" stroke-width="10" stroke="url(#SvgjsLinearGradient1057)" stroke-linecap="round" class="TopRight"></path><path d="M1019 759L2220 -442" stroke-width="8" stroke="url(#SvgjsLinearGradient1055)" stroke-linecap="round" class="TopRight"></path><path d="M675 643L-382 1700" stroke-width="8" stroke="url(#SvgjsLinearGradient1054)" stroke-linecap="round" class="BottomLeft"></path><path d="M280 1324L-1202 2806" stroke-width="8" stroke="url(#SvgjsLinearGradient1056)" stroke-linecap="round" class="BottomLeft"></path><path d="M1337 1544L2529 352" stroke-width="6" stroke="url(#SvgjsLinearGradient1057)" stroke-linecap="round" class="TopRight"></path><path d="M2196 1600L3752 44" stroke-width="10" stroke="url(#SvgjsLinearGradient1054)" stroke-linecap="round" class="BottomLeft"></path><path d="M2001 2006L1264 2743" stroke-width="8" stroke="url(#SvgjsLinearGradient1054)" stroke-linecap="round" class="BottomLeft"></path><path d="M998 734L451 1281" stroke-width="10" stroke="url(#SvgjsLinearGradient1055)" stroke-linecap="round" class="TopRight"></path><path d="M2217 1306L3746 -223" stroke-width="8" stroke="url(#SvgjsLinearGradient1057)" stroke-linecap="round" class="TopRight"></path><path d="M1665 1342L3158 -151" stroke-width="6" stroke="url(#SvgjsLinearGradient1056)" stroke-linecap="round" class="BottomLeft"></path><path d="M3294 186L2063 1417" stroke-width="6" stroke="url(#SvgjsLinearGradient1056)" stroke-linecap="round" class="BottomLeft"></path><path d="M841 655L244 1252" stroke-width="8" stroke="url(#SvgjsLinearGradient1055)" stroke-linecap="round" class="TopRight"></path><path d="M2143 1611L3544 210" stroke-width="6" stroke="url(#SvgjsLinearGradient1056)" stroke-linecap="round" class="BottomLeft"></path><path d="M2637 619L2048 1208" stroke-width="10" stroke="url(#SvgjsLinearGradient1056)" stroke-linecap="round" class="BottomLeft"></path><path d="M1845 1604L2937 512" stroke-width="10" stroke="url(#SvgjsLinearGradient1055)" stroke-linecap="round" class="TopRight"></path><path d="M3545 1331L5163 -287" stroke-width="8" stroke="url(#SvgjsLinearGradient1055)" stroke-linecap="round" class="TopRight"></path><path d="M2201 2097L837 3461" stroke-width="8" stroke="url(#SvgjsLinearGradient1054)" stroke-linecap="round" class="BottomLeft"></path><path d="M889 1432L-516 2837" stroke-width="6" stroke="url(#SvgjsLinearGradient1055)" stroke-linecap="round" class="TopRight"></path><path d="M2654 133L3716 -929" stroke-width="8" stroke="url(#SvgjsLinearGradient1057)" stroke-linecap="round" class="TopRight"></path><path d="M1460 413L2003 -130" stroke-width="8" stroke="url(#SvgjsLinearGradient1056)" stroke-linecap="round" class="BottomLeft"></path><path d="M1754 27L889 892" stroke-width="10" stroke="url(#SvgjsLinearGradient1054)" stroke-linecap="round" class="BottomLeft"></path><path d="M3697 1587L2625 2659" stroke-width="6" stroke="url(#SvgjsLinearGradient1056)" stroke-linecap="round" class="BottomLeft"></path><path d="M1184 528L612 1100" stroke-width="10" stroke="url(#SvgjsLinearGradient1057)" stroke-linecap="round" class="TopRight"></path><path d="M83 2047L1690 440" stroke-width="10" stroke="url(#SvgjsLinearGradient1054)" stroke-linecap="round" class="BottomLeft"></path><path d="M2843 714L1319 2238" stroke-width="10" stroke="url(#SvgjsLinearGradient1057)" stroke-linecap="round" class="TopRight"></path><path d="M1034 1752L1743 1043" stroke-width="6" stroke="url(#SvgjsLinearGradient1054)" stroke-linecap="round" class="BottomLeft"></path><path d="M181 923L1302 -198" stroke-width="10" stroke="url(#SvgjsLinearGradient1057)" stroke-linecap="round" class="TopRight"></path><path d="M171 1629L-717 2517" stroke-width="10" stroke="url(#SvgjsLinearGradient1057)" stroke-linecap="round" class="TopRight"></path><path d="M2793 501L1714 1580" stroke-width="6" stroke="url(#SvgjsLinearGradient1057)" stroke-linecap="round" class="TopRight"></path><path d="M115 813L991 -63" stroke-width="8" stroke="url(#SvgjsLinearGradient1054)" stroke-linecap="round" class="BottomLeft"></path><path d="M1400 403L103 1700" stroke-width="8" stroke="url(#SvgjsLinearGradient1055)" stroke-linecap="round" class="TopRight"></path><path d="M1494 1524L432 2586" stroke-width="8" stroke="url(#SvgjsLinearGradient1057)" stroke-linecap="round" class="TopRight"></path><path d="M1084 648L2268 -536" stroke-width="8" stroke="url(#SvgjsLinearGradient1055)" stroke-linecap="round" class="TopRight"></path><path d="M1766 412L1118 1060" stroke-width="8" stroke="url(#SvgjsLinearGradient1055)" stroke-linecap="round" class="TopRight"></path><path d="M3289 516L1997 1808" stroke-width="10" stroke="url(#SvgjsLinearGradient1056)" stroke-linecap="round" class="BottomLeft"></path><path d="M3607 1288L4886 9" stroke-width="8" stroke="url(#SvgjsLinearGradient1056)" stroke-linecap="round" class="BottomLeft"></path><path d="M3590 552L2645 1497" stroke-width="10" stroke="url(#SvgjsLinearGradient1056)" stroke-linecap="round" class="BottomLeft"></path><path d="M1032 67L1684 -585" stroke-width="8" stroke="url(#SvgjsLinearGradient1057)" stroke-linecap="round" class="TopRight"></path><path d="M564 2018L1182 1400" stroke-width="8" stroke="url(#SvgjsLinearGradient1054)" stroke-linecap="round" class="BottomLeft"></path><path d="M3527 378L4586 -681" stroke-width="10" stroke="url(#SvgjsLinearGradient1055)" stroke-linecap="round" class="TopRight"></path><path d="M2547 1662L3334 875" stroke-width="8" stroke="url(#SvgjsLinearGradient1057)" stroke-linecap="round" class="TopRight"></path><path d="M3427 1342L2364 2405" stroke-width="10" stroke="url(#SvgjsLinearGradient1057)" stroke-linecap="round" class="TopRight"></path><path d="M1129 1842L2296 675" stroke-width="6" stroke="url(#SvgjsLinearGradient1055)" stroke-linecap="round" class="TopRight"></path><path d="M2720 639L1869 1490" stroke-width="10" stroke="url(#SvgjsLinearGradient1054)" stroke-linecap="round" class="BottomLeft"></path><path d="M1066 2053L2512 607" stroke-width="10" stroke="url(#SvgjsLinearGradient1054)" stroke-linecap="round" class="BottomLeft"></path><path d="M3687 633L2418 1902" stroke-width="6" stroke="url(#SvgjsLinearGradient1054)" stroke-linecap="round" class="BottomLeft"></path><path d="M1203 386L405 1184" stroke-width="8" stroke="url(#SvgjsLinearGradient1054)" stroke-linecap="round" class="BottomLeft"></path><path d="M2833 585L3737 -319" stroke-width="8" stroke="url(#SvgjsLinearGradient1054)" stroke-linecap="round" class="BottomLeft"></path><path d="M1829 323L377 1775" stroke-width="8" stroke="url(#SvgjsLinearGradient1054)" stroke-linecap="round" class="BottomLeft"></path><path d="M2141 1079L3220 0" stroke-width="8" stroke="url(#SvgjsLinearGradient1057)" stroke-linecap="round" class="TopRight"></path><path d="M2292 549L3287 -446" stroke-width="6" stroke="url(#SvgjsLinearGradient1057)" stroke-linecap="round" class="TopRight"></path><path d="M1996 327L3075 -752" stroke-width="8" stroke="url(#SvgjsLinearGradient1055)" stroke-linecap="round" class="TopRight"></path><path d="M3504 892L2332 2064" stroke-width="10" stroke="url(#SvgjsLinearGradient1057)" stroke-linecap="round" class="TopRight"></path><path d="M2946 1383L4136 193" stroke-width="6" stroke="url(#SvgjsLinearGradient1057)" stroke-linecap="round" class="TopRight"></path><path d="M2498 1865L1768 2595" stroke-width="8" stroke="url(#SvgjsLinearGradient1057)" stroke-linecap="round" class="TopRight"></path><path d="M3633 633L2874 1392" stroke-width="10" stroke="url(#SvgjsLinearGradient1056)" stroke-linecap="round" class="BottomLeft"></path><path d="M1305 1287L2095 497" stroke-width="6" stroke="url(#SvgjsLinearGradient1055)" stroke-linecap="round" class="TopRight"></path><path d="M3074 1628L2472 2230" stroke-width="6" stroke="url(#SvgjsLinearGradient1056)" stroke-linecap="round" class="BottomLeft"></path><path d="M120 1780L839 1061" stroke-width="8" stroke="url(#SvgjsLinearGradient1056)" stroke-linecap="round" class="BottomLeft"></path><path d="M3106 2004L3998 1112" stroke-width="10" stroke="url(#SvgjsLinearGradient1056)" stroke-linecap="round" class="BottomLeft"></path><path d="M365 1106L-570 2041" stroke-width="10" stroke="url(#SvgjsLinearGradient1056)" stroke-linecap="round" class="BottomLeft"></path><path d="M1230 1572L2131 671" stroke-width="6" stroke="url(#SvgjsLinearGradient1054)" stroke-linecap="round" class="BottomLeft"></path><path d="M2044 1510L2625 929" stroke-width="10" stroke="url(#SvgjsLinearGradient1057)" stroke-linecap="round" class="TopRight"></path><path d="M831 1730L-522 3083" stroke-width="8" stroke="url(#SvgjsLinearGradient1057)" stroke-linecap="round" class="TopRight"></path><path d="M170 870L1366 -326" stroke-width="6" stroke="url(#SvgjsLinearGradient1055)" stroke-linecap="round" class="TopRight"></path><path d="M223 1676L-418 2317" stroke-width="6" stroke="url(#SvgjsLinearGradient1054)" stroke-linecap="round" class="BottomLeft"></path><path d="M2843 1402L4314 -69" stroke-width="10" stroke="url(#SvgjsLinearGradient1057)" stroke-linecap="round" class="TopRight"></path><path d="M3569 731L2340 1960" stroke-width="10" stroke="url(#SvgjsLinearGradient1055)" stroke-linecap="round" class="TopRight"></path><path d="M2687 343L1512 1518" stroke-width="10" stroke="url(#SvgjsLinearGradient1054)" stroke-linecap="round" class="BottomLeft"></path><path d="M1237 616L1965 -112" stroke-width="8" stroke="url(#SvgjsLinearGradient1055)" stroke-linecap="round" class="TopRight"></path><path d="M3546 499L4850 -805" stroke-width="6" stroke="url(#SvgjsLinearGradient1055)" stroke-linecap="round" class="TopRight"></path><path d="M869 622L302 1189" stroke-width="8" stroke="url(#SvgjsLinearGradient1054)" stroke-linecap="round" class="BottomLeft"></path><path d="M2740 47L2140 647" stroke-width="8" stroke="url(#SvgjsLinearGradient1057)" stroke-linecap="round" class="TopRight"></path></g><defs><mask id="SvgjsMask1053"><rect width="3840" height="2160" fill="#ffffff"></rect></mask><linearGradient x1="100%" y1="0%" x2="0%" y2="100%" id="SvgjsLinearGradient1054"><stop stop-color="rgba(5, 117, 230, 0)" offset="0"></stop><stop stop-color="rgba(5, 117, 230, 1)" offset="1"></stop></linearGradient><linearGradient x1="0%" y1="100%" x2="100%" y2="0%" id="SvgjsLinearGradient1055"><stop stop-color="rgba(0, 207, 48, 0)" offset="0"></stop><stop stop-color="rgba(0, 207, 48, 1)" offset="1"></stop></linearGradient><linearGradient x1="100%" y1="0%" x2="0%" y2="100%" id="SvgjsLinearGradient1056"><stop stop-color="rgba(0, 207, 48, 0)" offset="0"></stop><stop stop-color="rgba(0, 207, 48, 1)" offset="1"></stop></linearGradient><linearGradient x1="0%" y1="100%" x2="100%" y2="0%" id="SvgjsLinearGradient1057"><stop stop-color="rgba(5, 117, 230, 0)" offset="0"></stop><stop stop-color="rgba(5, 117, 230, 1)" offset="1"></stop></linearGradient></defs></svg>